<svg width="40" height="40" viewBox="0 0 40 40" fill="none" xmlns="http://www.w3.org/2000/svg">
<circle cx="19.5" cy="20.5" r="15.5" stroke="white" stroke-width="8"/>
<path d="M16.6208 1.01832C14.4216 1.22775 12.8086 3.18033 13.018 5.37952C13.2275 7.5787 15.18 9.19172 17.3792 8.98228L16.6208 1.01832ZM31.015 22.6535C30.8237 24.8543 32.4526 26.7936 34.6535 26.985C36.8543 27.1764 38.7936 25.5474 38.985 23.3465L31.015 22.6535ZM17.3792 8.98228C21.5756 8.58265 25.1416 9.88809 27.539 12.195C29.9095 14.476 31.4192 18.0057 31.015 22.6535L38.985 23.3465C39.5808 16.4944 37.3405 10.5242 33.086 6.43035C28.8584 2.36242 22.9244 0.418007 16.6208 1.01832L17.3792 8.98228Z" fill="#EC008C"/>
</svg>
